<svg width="270.31257324218745px" height="257.60003662109375px" xmlns="http://www.w3.org/2000/svg" viewBox="160.9 25.5 200 105" style="background: rgba(0, 0, 0, 0);" preserveAspectRatio="xMidYMid"><defs><filter id="editing-jagged" x="-100%" y="-100%" width="300%" height="300%"><feTurbulence result="turb" baseFrequency="0.1" numOctaves="1" seed="1"></feTurbulence><feDisplacementMap in="SourceGraphic" in2="turb" scale="10"></feDisplacementMap></filter></defs><g filter="url(#editing-jagged)"><g transform="translate(160.60001677274704, 127.50000190734863)"><path d="M61.05-69.30L61.05-69.30L61.05-69.30Q63.30-73.80 63.30-78L63.30-78L63.30-78Q63.30-82.20 62.85-84.52L62.85-84.52L62.85-84.52Q62.40-86.85 61.35-88.65L61.35-88.65L61.35-88.65Q59.10-92.55 54.60-92.55L54.60-92.55L54.60-92.55Q49.05-92.55 44.55-88.50L44.55-88.50L44.55-88.50Q39.75-84.30 39.75-77.70L39.75-77.70L39.75-77.70Q39.75-73.50 42.67-70.27L42.67-70.27L42.67-70.27Q45.60-67.05 50.10-64.05L50.10-64.05L50.10-64.05Q54.60-61.05 59.70-58.05L59.70-58.05L59.70-58.05Q64.80-55.05 69.30-51.45L69.30-51.45L69.30-51.45Q79.65-43.20 79.65-32.10L79.65-32.10L79.65-32.10Q79.65-24.60 75.67-18.22L75.67-18.22L75.67-18.22Q71.70-11.85 65.10-7.20L65.10-7.20L65.10-7.20Q50.70 3 31.65 3L31.65 3L31.65 3Q16.20 3 8.25-2.02L8.25-2.02L8.25-2.02Q0.30-7.05 0.30-14.70L0.30-14.70L0.30-14.70Q0.30-28.35 10.95-31.80L10.95-31.80L10.95-31.80Q13.95-32.85 18.52-32.85L18.52-32.85L18.52-32.85Q23.10-32.85 28.35-30.90L28.35-30.90L28.35-30.90Q25.95-24.75 25.95-19.20L25.95-19.20L25.95-19.20Q25.95-7.20 34.50-7.20L34.50-7.20L34.50-7.20Q40.05-7.20 44.63-11.25L44.63-11.25L44.63-11.25Q49.20-15.30 49.20-19.88L49.20-19.88L49.20-19.88Q49.20-24.45 46.27-27.75L46.27-27.75L46.27-27.75Q43.35-31.05 39-33.67L39-33.67L39-33.67Q34.65-36.30 29.63-38.85L29.63-38.85L29.63-38.85Q24.60-41.40 20.25-45L20.25-45L20.25-45Q10.05-53.25 10.05-66.45L10.05-66.45L10.05-66.45Q10.05-75 14.25-81.67L14.25-81.67L14.25-81.67Q18.45-88.35 25.20-92.85L25.20-92.85L25.20-92.85Q38.70-102 55.27-102L55.27-102L55.27-102Q71.85-102 79.88-97.05L79.88-97.05L79.88-97.05Q87.90-92.10 87.90-83.70L87.90-83.70L87.90-83.70Q87.90-76.35 82.20-71.70L82.20-71.70L82.20-71.70Q77.25-67.80 71.25-67.80L71.25-67.80L71.25-67.80Q65.25-67.80 61.05-69.30ZM89.55-0.75L89.55-0.75L108.45-99L108.45-99Q126.15-100.50 137.55-100.50L137.55-100.50L137.55-100.50Q148.95-100.50 156.30-99.52L156.30-99.52L156.30-99.52Q163.65-98.55 168.60-96L168.60-96L168.60-96Q178.50-91.20 178.50-78L178.50-78L178.50-78Q178.50-70.35 171.90-63.90L171.90-63.90L171.90-63.90Q165.75-58.05 159-56.70L159-56.70L159-56.70Q166.20-55.50 171.30-50.10L171.30-50.10L171.30-50.10Q176.70-44.40 176.70-35.55L176.70-35.55L176.70-35.55Q176.70-18.45 163.95-8.47L163.95-8.47L163.95-8.47Q151.20 1.50 126.15 1.50L126.15 1.50L126.15 1.50Q108.90 1.50 89.55-0.75ZM130.35-48.30L122.85-9.45L122.85-9.45Q124.20-9.30 124.50-9.30L124.50-9.30L125.85-9.30L125.85-9.30Q138.15-9.30 143.40-17.40L143.40-17.40L143.40-17.40Q147.30-23.70 147.30-35.25L147.30-35.25L147.30-35.25Q147.30-41.40 143.32-44.70L143.32-44.70L143.32-44.70Q139.35-48 130.35-48.30L130.35-48.30ZM153.15-77.85L153.15-77.85L153.15-77.85Q153.15-90.30 141.15-90.30L141.15-90.30L139.80-90.30L139.80-90.30Q139.20-90.30 138.30-90.15L138.30-90.15L132.30-58.50L133.80-58.50L133.80-58.50Q153.15-58.95 153.15-77.85Z" fill="#444"></path></g></g><style>text {
  font-size: 64px;
  font-family: Arial Black;
  dominant-baseline: central;
  text-anchor: middle;
}</style></svg>