<?xml version="1.0" encoding="utf-8"?>
<!-- Generator: Adobe Illustrator 19.0.0, SVG Export Plug-In . SVG Version: 6.00 Build 0)  -->
<svg version="1.1" id="Layer_1" xmlns="http://www.w3.org/2000/svg" xmlns:xlink="http://www.w3.org/1999/xlink" x="0px" y="0px"
	 viewBox="0 0 500 500" style="enable-background:new 0 0 500 500;" xml:space="preserve">
<style type="text/css">
	.st0{fill:#CD6799;}
</style>
<g id="XMLID_1_">
	<path id="XMLID_8_" class="st0" d="M381.8,270.5c-12.7,0.1-23.8,3.1-33.1,7.7c-3.4-6.7-6.8-12.7-7.4-17.1
		c-0.7-5.1-1.5-8.3-0.7-14.4c0.8-6.1,4.4-14.9,4.3-15.5c-0.1-0.7-0.8-3.8-8.1-3.9c-7.3-0.1-13.7,1.4-14.4,3.3
		c-0.7,1.9-2.1,6.3-3.1,10.9c-1.3,6.7-14.7,30.5-22.3,42.9c-2.5-4.9-4.6-9.1-5.1-12.5c-0.7-5.1-1.5-8.3-0.7-14.4
		c0.8-6.1,4.4-14.9,4.3-15.5c-0.1-0.7-0.8-3.8-8.1-3.9c-7.3-0.1-13.7,1.4-14.4,3.3s-1.5,6.5-3.1,10.9c-1.5,4.4-19.3,44.1-24,54.4
		c-2.4,5.3-4.5,9.5-5.9,12.3c0,0-0.1,0.2-0.3,0.5c-1.3,2.5-2,3.8-2,3.8s0,0,0,0.1c-1,1.8-2.1,3.5-2.6,3.5c-0.4,0-1.1-4.8,0.1-11.3
		c2.7-13.8,9-35.3,8.9-36c0-0.4,1.2-4.1-4.1-6.1c-5.2-1.9-7.1,1.3-7.5,1.3c-0.5,0-0.8,1.1-0.8,1.1s5.8-24.1-11.1-24.1
		c-10.5,0-25.1,11.5-32.3,21.9c-4.5,2.5-14.2,7.7-24.5,13.4c-3.9,2.2-8,4.4-11.8,6.5c-0.3-0.3-0.5-0.6-0.8-0.9
		c-20.4-21.8-58.1-37.2-56.5-66.5c0.6-10.7,4.3-38.7,72.5-72.7c56.1-27.7,100.8-20,108.5-3c11.1,24.3-23.9,69.3-81.9,75.9
		c-22.1,2.5-33.7-6.1-36.7-9.3c-3.1-3.3-3.5-3.5-4.7-2.9c-1.9,1-0.7,4,0,5.7c1.7,4.5,8.9,12.5,20.9,16.5c10.7,3.5,36.6,5.4,68-6.7
		c35.1-13.6,62.6-51.4,54.5-83.1c-8.1-32.1-61.4-42.7-111.9-24.8c-30,10.7-62.5,27.5-85.9,49.3c-27.8,26-32.2,48.6-30.4,58.1
		c6.5,33.6,52.8,55.5,71.3,71.7c-0.9,0.5-1.8,1-2.5,1.4c-9.3,4.6-44.6,23.1-53.4,42.6c-10,22.1,1.6,38,9.3,40.1
		c23.8,6.6,48.3-5.3,61.4-24.9c13.1-19.6,11.5-45.1,5.5-56.7c-0.1-0.1-0.1-0.3-0.3-0.4c2.4-1.4,4.9-2.9,7.3-4.3
		c4.7-2.8,9.4-5.4,13.4-7.5c-2.3,6.2-3.9,13.6-4.7,24.3c-1,12.5,4.1,28.8,10.9,35.2c3,2.8,6.5,2.9,8.8,2.9c7.9,0,11.4-6.5,15.3-14.3
		c4.8-9.5,9.1-20.5,9.1-20.5s-5.4,29.7,9.3,29.7c5.3,0,10.7-6.9,13.1-10.5c0,0.1,0,0.1,0,0.1s0.1-0.2,0.4-0.7
		c0.5-0.9,0.9-1.4,0.9-1.4s0-0.1,0-0.1c2.1-3.7,6.9-12.2,14.1-26.3c9.2-18.1,18.1-40.8,18.1-40.8s0.8,5.5,3.5,14.7
		c1.6,5.4,4.9,11.3,7.6,17.1c-2.1,3-3.5,4.7-3.5,4.7s0,0,0.1,0.1c-1.7,2.3-3.6,4.7-5.7,7.1c-7.3,8.7-15.9,18.6-17.1,21.5
		c-1.4,3.4-1.1,5.9,1.6,7.9c1.9,1.5,5.4,1.7,8.9,1.5c6.5-0.5,11.1-2.1,13.4-3.1c3.5-1.3,7.7-3.2,11.5-6.1
		c7.1-5.3,11.5-12.8,11.1-22.7c-0.2-5.5-2-10.9-4.2-16.1c0.7-0.9,1.3-1.9,1.9-2.8c11.3-16.5,20-34.5,20-34.5s0.8,5.5,3.5,14.7
		c1.3,4.7,4.1,9.7,6.5,14.7c-10.6,8.6-17.1,18.6-19.5,25.1c-4.2,12.1-0.9,17.6,5.3,18.9c2.8,0.6,6.8-0.7,9.7-2
		c3.7-1.2,8.1-3.3,12.3-6.3c7.1-5.3,14-12.6,13.6-22.5c-0.2-4.5-1.4-9-3.1-13.3c9-3.7,20.6-5.8,35.4-4.1c31.7,3.7,38,23.5,36.8,31.9
		c-1.2,8.3-7.9,12.9-10.1,14.3c-2.2,1.4-2.9,1.9-2.7,2.9c0.3,1.5,1.3,1.4,3.2,1.1c2.6-0.5,16.7-6.7,17.3-22.1
		C433.5,291.7,414.8,270.3,381.8,270.5z M137,353c-10.5,11.5-25.2,15.8-31.5,12.1c-6.8-3.9-4.1-20.9,8.8-33
		c7.9-7.4,18-14.3,24.7-18.5c1.5-0.9,3.8-2.3,6.5-3.9c0.5-0.3,0.7-0.4,0.7-0.4c0.5-0.3,1.1-0.7,1.6-1C152.6,325.7,148.1,341,137,353
		z M213.7,300.9c-3.7,8.9-11.3,31.8-16,30.5c-4-1.1-6.5-18.4-0.8-35.5c2.9-8.6,8.9-18.9,12.5-22.9c5.7-6.4,12.1-8.5,13.6-5.9
		C224.9,270.5,215.9,295.3,213.7,300.9z M276.9,331.2c-1.5,0.8-3,1.3-3.7,0.9c-0.5-0.3,0.7-1.3,0.7-1.3s7.9-8.5,11.1-12.4
		c1.8-2.3,3.9-4.9,6.2-7.9c0,0.3,0,0.6,0,0.9C291.2,321.5,281.3,328.4,276.9,331.2z M325.7,320c-1.1-0.8-0.9-3.5,2.9-11.8
		c1.5-3.3,4.9-8.7,10.9-14c0.7,2.1,1.1,4.2,1.1,6.1C340.5,313.2,331.3,318,325.7,320z"/>
</g>
</svg>
