<svg id="Design" xmlns="http://www.w3.org/2000/svg" xmlns:xlink="http://www.w3.org/1999/xlink" viewBox="0 0 483.28 149.43"><defs><style>.cls-1{fill:#5378f5;}.cls-2{fill:url(#linear-gradient);}.cls-3{font-size:48px;fill:#fff;}.cls-3,.cls-7{font-family:Montserrat-Regular, Montserrat;}.cls-4{letter-spacing:-0.01em;}.cls-5{letter-spacing:0em;}.cls-6{letter-spacing:-0.01em;}.cls-7{font-size:26px;fill:#999;}.cls-8{letter-spacing:-0.01em;}.cls-9{letter-spacing:-0.01em;}.cls-10{letter-spacing:-0.02em;}</style><linearGradient id="linear-gradient" x1="53.56" y1="176.09" x2="128.73" y2="81.33" gradientUnits="userSpaceOnUse"><stop offset="0" stop-color="#5378f5"/><stop offset="1"/></linearGradient></defs><path class="cls-1" d="M80.21,63.31A74.72,74.72,0,1,0,154.92,138,74.72,74.72,0,0,0,80.21,63.31Zm0,119.55A44.83,44.83,0,1,1,125,138,44.83,44.83,0,0,1,80.21,182.86Z" transform="translate(-5.49 -63.31)"/><path class="cls-2" d="M91,68.39a60.48,60.48,0,1,0,60.48,60.48A60.48,60.48,0,0,0,91,68.39ZM80.21,182.86A44.83,44.83,0,1,1,125,138,44.83,44.83,0,0,1,80.21,182.86Z" transform="translate(-5.49 -63.31)"/><text class="cls-3" transform="translate(176.02 72.55)">se<tspan class="cls-4" x="52.46" y="0">r</tspan><tspan x="71.09" y="0">gio </tspan><tspan class="cls-5" x="159.6" y="0">b</tspan><tspan x="192" y="0">a</tspan><tspan class="cls-6" x="220.32" y="0">rr</tspan><tspan x="258.04" y="0">ia</tspan></text><text class="cls-7" transform="translate(176.02 106.36)"><tspan class="cls-8">w</tspan><tspan x="22.46" y="0">eb d</tspan><tspan class="cls-9" x="80.24" y="0">e</tspan><tspan class="cls-10" x="95.68" y="0">v</tspan><tspan x="109.38" y="0">eloper</tspan></text></svg>