<svg id="Design" xmlns="http://www.w3.org/2000/svg" xmlns:xlink="http://www.w3.org/1999/xlink" viewBox="0 0 478.73 196.91"><defs><style>.cls-1{fill:#f23333;}.cls-2{fill:url(#linear-gradient);}.cls-3{font-size:40px;fill:#fff;}.cls-3,.cls-7{font-family:Montserrat-Regular, Montserrat;}.cls-4{letter-spacing:-0.01em;}.cls-5{letter-spacing:0em;}.cls-6{letter-spacing:-0.01em;}.cls-7{font-size:24px;fill:#999;}.cls-8{letter-spacing:-0.02em;}.cls-9{letter-spacing:-0.01em;}</style><linearGradient id="linear-gradient" x1="73.97" y1="196.28" x2="173.02" y2="71.42" gradientUnits="userSpaceOnUse"><stop offset="0" stop-color="#f23333"/><stop offset="1"/></linearGradient></defs><path class="cls-1" d="M109.09,47.67a98.46,98.46,0,1,0,98.45,98.46A98.46,98.46,0,0,0,109.09,47.67Zm0,157.53a59.08,59.08,0,1,1,59.07-59.07A59.07,59.07,0,0,1,109.09,205.2Z" transform="translate(-10.64 -47.67)"/><path class="cls-2" d="M123.33,54.37A79.69,79.69,0,1,0,203,134.06,79.69,79.69,0,0,0,123.33,54.37ZM109.09,205.2a59.08,59.08,0,1,1,59.07-59.07A59.07,59.07,0,0,1,109.09,205.2Z" transform="translate(-10.64 -47.67)"/><text class="cls-3" transform="translate(220.06 82.26)">se<tspan class="cls-4" x="43.72" y="0">r</tspan><tspan x="59.24" y="0">gio </tspan><tspan class="cls-5" x="133" y="0">b</tspan><tspan x="160" y="0">a</tspan><tspan class="cls-6" x="183.6" y="0">rr</tspan><tspan x="215.04" y="0">ia</tspan></text><text class="cls-7" transform="translate(220.06 120.51)"><tspan class="cls-8">w</tspan><tspan x="20.74" y="0">eb d</tspan><tspan class="cls-9" x="74.06" y="0">e</tspan><tspan class="cls-8" x="88.32" y="0">v</tspan><tspan x="100.97" y="0">eloper</tspan></text></svg>