<svg id="Design" xmlns="http://www.w3.org/2000/svg" xmlns:xlink="http://www.w3.org/1999/xlink" viewBox="0 0 470.78 149.43"><defs><style>.cls-1{fill:#5378f5;}.cls-2{fill:url(#linear-gradient);}.cls-3{fill:#fff;}.cls-4{fill:#999;}</style><linearGradient id="linear-gradient" x1="53.56" y1="176.09" x2="128.73" y2="81.33" gradientUnits="userSpaceOnUse"><stop offset="0" stop-color="#5378f5"/><stop offset="1"/></linearGradient></defs><path class="cls-1" d="M80.21,63.31A74.72,74.72,0,1,0,154.92,138,74.72,74.72,0,0,0,80.21,63.31Zm0,119.55A44.83,44.83,0,1,1,125,138,44.83,44.83,0,0,1,80.21,182.86Z" transform="translate(-5.49 -63.31)"/><path class="cls-2" d="M91,68.39a60.48,60.48,0,1,0,60.48,60.48A60.48,60.48,0,0,0,91,68.39ZM80.21,182.86A44.83,44.83,0,1,1,125,138,44.83,44.83,0,0,1,80.21,182.86Z" transform="translate(-5.49 -63.31)"/><path class="cls-3" d="M187.15,135.22a12.67,12.67,0,0,1-4.39-2.23l1.53-2.69a13.1,13.1,0,0,0,4,2,15.75,15.75,0,0,0,5,.79,9.53,9.53,0,0,0,5.11-1.08A3.43,3.43,0,0,0,200,129a2.76,2.76,0,0,0-.91-2.18,6,6,0,0,0-2.31-1.2,32.29,32.29,0,0,0-3.69-.79,43.67,43.67,0,0,1-4.95-1.18,7.25,7.25,0,0,1-3.19-2,5.67,5.67,0,0,1-1.32-4,6.25,6.25,0,0,1,2.64-5.19,11.88,11.88,0,0,1,7.34-2,19.11,19.11,0,0,1,4.9.64,13.46,13.46,0,0,1,4,1.71l-1.48,2.73a12.8,12.8,0,0,0-7.45-2.16,8.63,8.63,0,0,0-4.92,1.16,3.51,3.51,0,0,0-1.65,3,3,3,0,0,0,.93,2.3,5.85,5.85,0,0,0,2.33,1.28,39,39,0,0,0,3.84.84A42.08,42.08,0,0,1,199,123.1a7,7,0,0,1,3.12,2,5.36,5.36,0,0,1,1.3,3.84,6.1,6.1,0,0,1-2.76,5.25c-1.84,1.3-4.4,2-7.66,2A19.43,19.43,0,0,1,187.15,135.22Z" transform="translate(-5.49 -63.31)"/><path class="cls-3" d="M231.72,124.3H210.6a9,9,0,0,0,3,6.36,10.08,10.08,0,0,0,6.91,2.42,10.88,10.88,0,0,0,4.32-.84,9.35,9.35,0,0,0,3.41-2.47l1.92,2.21a10.81,10.81,0,0,1-4.2,3.07,14.28,14.28,0,0,1-5.54,1.06,14.08,14.08,0,0,1-6.89-1.66,11.92,11.92,0,0,1-4.68-4.58,13.1,13.1,0,0,1-1.68-6.63,13.54,13.54,0,0,1,1.61-6.62,11.61,11.61,0,0,1,4.42-4.56,12.29,12.29,0,0,1,6.31-1.63,12.15,12.15,0,0,1,6.28,1.63,11.54,11.54,0,0,1,4.37,4.53,13.65,13.65,0,0,1,1.59,6.65Zm-18.31-8.62a9.12,9.12,0,0,0-2.81,6.07h17.9a9.12,9.12,0,0,0-2.81-6.07,9.25,9.25,0,0,0-12.28,0Z" transform="translate(-5.49 -63.31)"/><path class="cls-3" d="M245.57,111.72a12.18,12.18,0,0,1,5.88-1.29v3.31l-.82,0a8.06,8.06,0,0,0-6.24,2.45,9.77,9.77,0,0,0-2.26,6.86v12.87h-3.4V110.62H242v4.94A8.29,8.29,0,0,1,245.57,111.72Z" transform="translate(-5.49 -63.31)"/><path class="cls-3" d="M280.73,110.62v22.17q0,6.44-3.15,9.53t-9.48,3.1a21.47,21.47,0,0,1-6.65-1,13.67,13.67,0,0,1-5.11-2.86l1.73-2.59a13,13,0,0,0,4.44,2.54,16.53,16.53,0,0,0,5.5.91q4.8,0,7.05-2.23t2.26-6.93V130a10.3,10.3,0,0,1-4.15,3.65,12.9,12.9,0,0,1-5.69,1.25,13.44,13.44,0,0,1-6.46-1.56,11.55,11.55,0,0,1-4.56-4.37,13,13,0,0,1,0-12.7A11.58,11.58,0,0,1,261,112a13.6,13.6,0,0,1,6.48-1.53,12.88,12.88,0,0,1,5.81,1.29,10.46,10.46,0,0,1,4.17,3.75v-4.85Zm-8,20.09a8.56,8.56,0,0,0,3.43-3.29,9.36,9.36,0,0,0,1.22-4.8,9.24,9.24,0,0,0-1.22-4.78,8.57,8.57,0,0,0-3.41-3.26,10.23,10.23,0,0,0-5-1.18,10.5,10.5,0,0,0-4.92,1.15,8.37,8.37,0,0,0-3.4,3.27,10,10,0,0,0,0,9.6,8.54,8.54,0,0,0,3.4,3.29,10.27,10.27,0,0,0,4.92,1.17A10.39,10.39,0,0,0,272.76,130.71Z" transform="translate(-5.49 -63.31)"/><path class="cls-3" d="M290.23,104.38a2.36,2.36,0,0,1-.72-1.73,2.3,2.3,0,0,1,.72-1.68,2.57,2.57,0,0,1,3.55,0,2.21,2.21,0,0,1,.72,1.65,2.51,2.51,0,0,1-4.27,1.78Zm0,6.24h3.41v25.25h-3.41Z" transform="translate(-5.49 -63.31)"/><path class="cls-3" d="M306.93,134.45a12,12,0,0,1-4.6-4.58,13.9,13.9,0,0,1,0-13.25,11.93,11.93,0,0,1,4.6-4.56,14.1,14.1,0,0,1,13.16,0,11.74,11.74,0,0,1,4.58,4.56,14.05,14.05,0,0,1,0,13.25,11.86,11.86,0,0,1-4.58,4.58,13.87,13.87,0,0,1-13.16,0Zm11.4-2.59a8.55,8.55,0,0,0,3.34-3.48,11.59,11.59,0,0,0,0-10.27,8.43,8.43,0,0,0-3.34-3.48,10.06,10.06,0,0,0-9.64,0,8.54,8.54,0,0,0-3.36,3.48,11.33,11.33,0,0,0,0,10.27,8.66,8.66,0,0,0,3.36,3.48,10.13,10.13,0,0,0,9.64,0Z" transform="translate(-5.49 -63.31)"/><path class="cls-3" d="M365.3,112a11.58,11.58,0,0,1,4.51,4.54,14.46,14.46,0,0,1,0,13.34,11.57,11.57,0,0,1-4.51,4.56,12.79,12.79,0,0,1-6.43,1.64,11.87,11.87,0,0,1-5.69-1.35,10.38,10.38,0,0,1-4.06-3.89v5h-3.26V100.25h3.41v15.17a10.53,10.53,0,0,1,4.05-3.72,11.94,11.94,0,0,1,5.55-1.27A13,13,0,0,1,365.3,112Zm-1.87,19.83a8.65,8.65,0,0,0,3.38-3.48,11.33,11.33,0,0,0,0-10.27,8.52,8.52,0,0,0-3.38-3.48,10,10,0,0,0-9.63,0,8.67,8.67,0,0,0-3.36,3.48,11.42,11.42,0,0,0,0,10.27,8.8,8.8,0,0,0,3.36,3.48,10.11,10.11,0,0,0,9.63,0Z" transform="translate(-5.49 -63.31)"/><path class="cls-3" d="M394.68,112.9q2.64,2.47,2.64,7.32v15.65h-3.27v-3.94a7.72,7.72,0,0,1-3.38,3.07,11.8,11.8,0,0,1-5.3,1.11,10.44,10.44,0,0,1-6.73-2,6.51,6.51,0,0,1-2.49-5.33,6.43,6.43,0,0,1,2.33-5.18q2.32-2,7.41-2h8v-1.54a6.44,6.44,0,0,0-1.83-5,7.49,7.49,0,0,0-5.32-1.71,13.74,13.74,0,0,0-4.61.79,11.57,11.57,0,0,0-3.79,2.19l-1.54-2.55a13.93,13.93,0,0,1,4.61-2.52,18,18,0,0,1,5.66-.88Q392,110.43,394.68,112.9Zm-3.84,19.2a7.88,7.88,0,0,0,3.07-3.82v-4.13H386q-6.48,0-6.48,4.52a4.13,4.13,0,0,0,1.68,3.48,7.7,7.7,0,0,0,4.7,1.27A9,9,0,0,0,390.84,132.1Z" transform="translate(-5.49 -63.31)"/><path class="cls-3" d="M413.42,111.72a12.18,12.18,0,0,1,5.88-1.29v3.31l-.82,0a8.09,8.09,0,0,0-6.24,2.45A9.76,9.76,0,0,0,410,123v12.87h-3.41V110.62h3.26v4.94A8.34,8.34,0,0,1,413.42,111.72Z" transform="translate(-5.49 -63.31)"/><path class="cls-3" d="M432.28,111.72a12.23,12.23,0,0,1,5.88-1.29v3.31l-.81,0a8.06,8.06,0,0,0-6.24,2.45,9.72,9.72,0,0,0-2.26,6.86v12.87h-3.41V110.62h3.27v4.94A8.32,8.32,0,0,1,432.28,111.72Z" transform="translate(-5.49 -63.31)"/><path class="cls-3" d="M444.26,104.38a2.36,2.36,0,0,1-.72-1.73,2.3,2.3,0,0,1,.72-1.68,2.57,2.57,0,0,1,3.55,0,2.21,2.21,0,0,1,.72,1.65,2.51,2.51,0,0,1-4.27,1.78Zm.05,6.24h3.4v25.25h-3.4Z" transform="translate(-5.49 -63.31)"/><path class="cls-3" d="M473.63,112.9q2.64,2.47,2.64,7.32v15.65H473v-3.94a7.78,7.78,0,0,1-3.38,3.07,11.82,11.82,0,0,1-5.31,1.11,10.43,10.43,0,0,1-6.72-2,6.95,6.95,0,0,1-.17-10.51q2.34-2,7.42-2h8v-1.54a6.44,6.44,0,0,0-1.83-5,7.5,7.5,0,0,0-5.33-1.71,13.68,13.68,0,0,0-4.6.79,11.62,11.62,0,0,0-3.8,2.19l-1.53-2.55a13.83,13.83,0,0,1,4.61-2.52,18,18,0,0,1,5.66-.88Q471,110.43,473.63,112.9Zm-3.84,19.2a7.9,7.9,0,0,0,3.08-3.82v-4.13H465q-6.48,0-6.48,4.52a4.13,4.13,0,0,0,1.68,3.48,7.68,7.68,0,0,0,4.7,1.27A9,9,0,0,0,469.79,132.1Z" transform="translate(-5.49 -63.31)"/><path class="cls-4" d="M204.16,156,199,169.67h-1.74l-4.32-11.2-4.31,11.2h-1.74L181.72,156h1.77l4.29,11.62L192.17,156h1.59l4.36,11.62L202.47,156Z" transform="translate(-5.49 -63.31)"/><path class="cls-4" d="M218.46,163.41H207a4.88,4.88,0,0,0,1.63,3.44,5.43,5.43,0,0,0,3.75,1.31,6,6,0,0,0,2.34-.45,5.17,5.17,0,0,0,1.85-1.34l1,1.2a6,6,0,0,1-2.28,1.66,8.23,8.23,0,0,1-6.73-.32,6.47,6.47,0,0,1-2.54-2.49,7,7,0,0,1-.91-3.59,7.3,7.3,0,0,1,.87-3.58,6.31,6.31,0,0,1,2.39-2.47,6.71,6.71,0,0,1,3.42-.89,6.62,6.62,0,0,1,3.41.89,6.35,6.35,0,0,1,2.37,2.45,7.42,7.42,0,0,1,.85,3.6Zm-9.92-4.67A5,5,0,0,0,207,162h9.7a5,5,0,0,0-1.53-3.29,5,5,0,0,0-6.65,0Z" transform="translate(-5.49 -63.31)"/><path class="cls-4" d="M232.78,156.76a6.23,6.23,0,0,1,2.45,2.46,7.87,7.87,0,0,1,0,7.23,6.32,6.32,0,0,1-2.45,2.47,6.92,6.92,0,0,1-3.48.88,6.37,6.37,0,0,1-3.08-.73A5.61,5.61,0,0,1,224,167v2.7h-1.77V150.38h1.85v8.22a5.61,5.61,0,0,1,2.2-2,6.44,6.44,0,0,1,3-.69A7,7,0,0,1,232.78,156.76Zm-1,10.74a4.67,4.67,0,0,0,1.83-1.88,6.12,6.12,0,0,0,0-5.57,4.67,4.67,0,0,0-1.83-1.88,5.4,5.4,0,0,0-5.21,0,4.64,4.64,0,0,0-1.82,1.88,6.12,6.12,0,0,0,0,5.57,4.64,4.64,0,0,0,1.82,1.88,5.47,5.47,0,0,0,5.21,0Z" transform="translate(-5.49 -63.31)"/><path class="cls-4" d="M259.17,150.38v19.29H257.4V167a5.52,5.52,0,0,1-2.19,2.1,6.4,6.4,0,0,1-3.08.73,6.94,6.94,0,0,1-3.49-.88,6.3,6.3,0,0,1-2.44-2.47,7.79,7.79,0,0,1,0-7.23,6.21,6.21,0,0,1,2.44-2.46,7,7,0,0,1,3.49-.87,6.44,6.44,0,0,1,3,.69,5.75,5.75,0,0,1,2.2,2v-8.22Zm-4.3,17.12a4.71,4.71,0,0,0,1.82-1.88,6.21,6.21,0,0,0,0-5.57,4.71,4.71,0,0,0-1.82-1.88,5.38,5.38,0,0,0-5.2,0,4.71,4.71,0,0,0-1.82,1.88,6.21,6.21,0,0,0,0,5.57,4.71,4.71,0,0,0,1.82,1.88,5.45,5.45,0,0,0,5.2,0Z" transform="translate(-5.49 -63.31)"/><path class="cls-4" d="M276.23,163.41H264.79a4.85,4.85,0,0,0,1.64,3.44,5.39,5.39,0,0,0,3.74,1.31,6,6,0,0,0,2.34-.45,5.09,5.09,0,0,0,1.85-1.34l1,1.2a6,6,0,0,1-2.28,1.66,8.23,8.23,0,0,1-6.73-.32,6.47,6.47,0,0,1-2.54-2.49,7.12,7.12,0,0,1-.91-3.59,7.3,7.3,0,0,1,.87-3.58,6.27,6.27,0,0,1,2.4-2.47,7,7,0,0,1,6.82,0,6.28,6.28,0,0,1,2.37,2.45,7.42,7.42,0,0,1,.85,3.6Zm-9.92-4.67a5,5,0,0,0-1.52,3.29h9.7a5,5,0,0,0-1.53-3.29,5,5,0,0,0-6.65,0Z" transform="translate(-5.49 -63.31)"/><path class="cls-4" d="M291.26,156l-6.09,13.67h-1.9l-6-13.67h1.92l5.12,11.64L289.44,156Z" transform="translate(-5.49 -63.31)"/><path class="cls-4" d="M305.37,163.41H293.93a4.89,4.89,0,0,0,1.64,3.44,5.43,5.43,0,0,0,3.75,1.31,6,6,0,0,0,2.34-.45,5.05,5.05,0,0,0,1.84-1.34l1,1.2a5.92,5.92,0,0,1-2.27,1.66,8.25,8.25,0,0,1-6.74-.32,6.45,6.45,0,0,1-2.53-2.49,7,7,0,0,1-.91-3.59,7.3,7.3,0,0,1,.87-3.58,6.31,6.31,0,0,1,2.39-2.47,7,7,0,0,1,6.83,0,6.25,6.25,0,0,1,2.36,2.45,7.43,7.43,0,0,1,.86,3.6Zm-9.91-4.67a4.93,4.93,0,0,0-1.53,3.29h9.7a5,5,0,0,0-1.52-3.29,4.69,4.69,0,0,0-3.34-1.26A4.63,4.63,0,0,0,295.46,158.74Z" transform="translate(-5.49 -63.31)"/><path class="cls-4" d="M309.17,150.38H311v19.29h-1.85Z" transform="translate(-5.49 -63.31)"/><path class="cls-4" d="M318.19,168.91a6.48,6.48,0,0,1-2.49-2.49,7.52,7.52,0,0,1,0-7.17,6.36,6.36,0,0,1,2.49-2.47,7.59,7.59,0,0,1,7.13,0,6.4,6.4,0,0,1,2.48,2.47,7.59,7.59,0,0,1,0,7.17,6.52,6.52,0,0,1-2.48,2.49,7.59,7.59,0,0,1-7.13,0Zm6.18-1.41a4.6,4.6,0,0,0,1.8-1.88,6.29,6.29,0,0,0,0-5.57,4.6,4.6,0,0,0-1.8-1.88,5.44,5.44,0,0,0-5.23,0,4.71,4.71,0,0,0-1.82,1.88,6.21,6.21,0,0,0,0,5.57,4.71,4.71,0,0,0,1.82,1.88,5.51,5.51,0,0,0,5.23,0Z" transform="translate(-5.49 -63.31)"/><path class="cls-4" d="M343,156.76a6.21,6.21,0,0,1,2.44,2.46,7.91,7.91,0,0,1,0,7.25,6.25,6.25,0,0,1-2.43,2.46,7,7,0,0,1-3.5.87,6.44,6.44,0,0,1-3-.69,5.73,5.73,0,0,1-2.2-2v7.62h-1.84V156h1.76v2.7a5.78,5.78,0,0,1,2.2-2.08,6.4,6.4,0,0,1,3.08-.73A7.06,7.06,0,0,1,343,156.76Zm-1,10.74a4.67,4.67,0,0,0,1.83-1.88,5.7,5.7,0,0,0,.67-2.79,5.53,5.53,0,0,0-.67-2.76,4.76,4.76,0,0,0-1.83-1.89,5.33,5.33,0,0,0-5.21,0,4.8,4.8,0,0,0-1.82,1.89,5.63,5.63,0,0,0-.66,2.76,5.81,5.81,0,0,0,.66,2.79,4.71,4.71,0,0,0,1.82,1.88,5.47,5.47,0,0,0,5.21,0Z" transform="translate(-5.49 -63.31)"/><path class="cls-4" d="M362,163.41H350.56a4.89,4.89,0,0,0,1.64,3.44,5.42,5.42,0,0,0,3.74,1.31,6,6,0,0,0,2.34-.45,5.09,5.09,0,0,0,1.85-1.34l1,1.2a6,6,0,0,1-2.28,1.66,8.23,8.23,0,0,1-6.73-.32,6.45,6.45,0,0,1-2.53-2.49,7,7,0,0,1-.91-3.59,7.3,7.3,0,0,1,.87-3.58,6.24,6.24,0,0,1,2.39-2.47,6.66,6.66,0,0,1,3.42-.89,6.58,6.58,0,0,1,3.4.89,6.21,6.21,0,0,1,2.37,2.45,7.43,7.43,0,0,1,.86,3.6Zm-9.92-4.67a5,5,0,0,0-1.52,3.29h9.7a5,5,0,0,0-1.52-3.29,5,5,0,0,0-6.66,0Z" transform="translate(-5.49 -63.31)"/><path class="cls-4" d="M369.5,156.59a6.69,6.69,0,0,1,3.19-.7v1.8l-.44,0a4.34,4.34,0,0,0-3.38,1.33,5.24,5.24,0,0,0-1.23,3.71v7H365.8V156h1.77v2.67A4.48,4.48,0,0,1,369.5,156.59Z" transform="translate(-5.49 -63.31)"/></svg>